<svg width="15" height="16" viewBox="0 0 15 16" fill="none" xmlns="http://www.w3.org/2000/svg">
<path fill-rule="evenodd" clip-rule="evenodd" d="M3.5625 0.6875C3.71168 0.6875 3.85476 0.746763 3.96025 0.852252C4.06574 0.957742 4.125 1.10082 4.125 1.25V2.375H10.875V1.25C10.875 1.10082 10.9343 0.957742 11.0398 0.852252C11.1452 0.746763 11.2883 0.6875 11.4375 0.6875C11.5867 0.6875 11.7298 0.746763 11.8352 0.852252C11.9407 0.957742 12 1.10082 12 1.25V2.375H12.5625C13.1592 2.375 13.7315 2.61205 14.1535 3.03401C14.5754 3.45597 14.8125 4.02826 14.8125 4.625V13.0625C14.8125 13.6592 14.5754 14.2315 14.1535 14.6535C13.7315 15.0754 13.1592 15.3125 12.5625 15.3125H2.4375C1.84076 15.3125 1.26847 15.0754 0.84651 14.6535C0.424553 14.2315 0.1875 13.6592 0.1875 13.0625V4.625C0.1875 4.02826 0.424553 3.45597 0.84651 3.03401C1.26847 2.61205 1.84076 2.375 2.4375 2.375H3V1.25C3 1.10082 3.05926 0.957742 3.16475 0.852252C3.27024 0.746763 3.41332 0.6875 3.5625 0.6875ZM13.6875 7.4375C13.6875 7.13913 13.569 6.85298 13.358 6.642C13.147 6.43103 12.8609 6.3125 12.5625 6.3125H2.4375C2.13913 6.3125 1.85298 6.43103 1.642 6.642C1.43103 6.85298 1.3125 7.13913 1.3125 7.4375V13.0625C1.3125 13.3609 1.43103 13.647 1.642 13.858C1.85298 14.069 2.13913 14.1875 2.4375 14.1875H12.5625C12.8609 14.1875 13.147 14.069 13.358 13.858C13.569 13.647 13.6875 13.3609 13.6875 13.0625V7.4375Z" fill="#565656"/>
</svg>
